# xmcd CD database file
#
# Track frame offsets:
#	183
#	17208
#	36520
#	51553
#	65495
#	81848
#	97958
#	113050
#	121430
#	136365
#	151538
#	165220
#	184843
#	209678
#
# Disc length: 3090 seconds
#
# Revision: 0
# Processed by: cddbd v1.5.1PL0 Copyright (c) Steve Scherf et al.
# Submitted via: CDex 1.51
#
DISCID=be0c100e
DTITLE=Armand Gordon and His Jazz Clan - What A Wonderful World
DYEAR=1900
DGENRE=Jazz
TTITLE0=Sister Kate
TTITLE1=Sweet Giorga Brown
TTITLE2=Mojo Blues
TTITLE3=Nénuphar
TTITLE4=I Comin Virginia
TTITLE5=L'Araggnée
TTITLE6=Pedro Juan
TTITLE7=Strike Up The Band
TTITLE8=Jada
TTITLE9=Halle Halleluyah
TTITLE10=Mahogany
TTITLE11=On Slow Boat To China
TTITLE12=Chemin de Boston 18
TTITLE13=What A Wonderful World
EXTD=
EXTT0=
EXTT1=
EXTT2=
EXTT3=
EXTT4=
EXTT5=
EXTT6=
EXTT7=
EXTT8=
EXTT9=
EXTT10=
EXTT11=
EXTT12=
EXTT13=
PLAYORDER=
